<svg width="102" height="101" viewBox="0 0 102 101" fill="none" xmlns="http://www.w3.org/2000/svg">
	<path
		d="M87 35.5C81 37.5 69.4444 37.4521 69.4444 37.4521L64 86C64 86 54.5 69 34 57C26.0272 52.333 0 41.452 0 41.452C2.9034 12.8557 42.8095 -16.7128 77.9577 11.2328C78.9396 12.0135 79.7497 13.0188 80.3445 14.1233L82.1113 17.4046C82.6553 18.4148 83.4755 19.2463 84.4793 19.8019C89.4921 22.5761 98.8425 27.7679 101.591 30.235C101.755 30.3824 101.693 30.6393 101.483 30.7083C99.6301 31.3183 92.4061 33.698 87 35.5Z"
		fill="#16364D" />
	<path
		d="M53 42C53.2124 46.3253 53.0389 52.5 56 60.4096L56.0176 60.4566C56.9652 62.9878 60.5031 72.4378 61 76.9096C61.4781 81.2123 61.1706 92.8288 61.0112 93.8392C61.0029 93.8915 61 93.9362 61 93.9891V100.41C61 100.41 64.1132 94.527 66.5 83.482C67.8358 77.3005 69 67.482 69 67.482C69 67.482 70.2707 58.9512 72.5 53.982C74.1861 50.2238 78 44.982 78 44.982L87 35.5C87 35.5 75.7968 38.0581 69 37C69 37 67.5 35.5 67.5 32.5C67.5 31.6513 68 28 68 28L81 17.5C81 17.5 59.1607 11.3063 47 15.5724C41.1938 17.6093 34 26.0724 34 26.0724C34 26.0724 43.0017 27.0658 47 30.0724C52.6269 34.3037 53 42 53 42Z"
		fill="#01A6A3" />
	<path
		d="M81 17.5L101 30.5C101 30.5 90.3608 29.2332 84 29.5C77.4565 29.7744 67.5 32.5 67.5 32.5C67.5 32.5 67.5932 28.8003 68.233 27.5C69.4582 25.0099 70.6224 23.802 72.733 22C74.5414 20.4561 75.7667 19.8243 77.9108 18.7965C78.6111 18.4608 81 17.5 81 17.5Z"
		fill="#01A6A3" />
</svg>
